<?xml version="1.0" standalone="no"?>
<!DOCTYPE svg PUBLIC "-//W3C//DTD SVG 20010904//EN"
 "http://www.w3.org/TR/2001/REC-SVG-20010904/DTD/svg10.dtd">
<svg version="1.0" xmlns="http://www.w3.org/2000/svg"
 width="613.000000pt" height="608.000000pt" viewBox="0 0 613.000000 608.000000"
 preserveAspectRatio="xMidYMid meet">

<g transform="translate(0.000000,608.000000) scale(0.100000,-0.100000)"
fill="#000000" stroke="none">
<path d="M2786 6059 c-357 -35 -732 -139 -1051 -294 -323 -157 -594 -353 -856
-621 -459 -470 -739 -1036 -841 -1699 -38 -251 -33 -724 10 -925 l8 -35 93 -3
94 -3 -7 43 c-32 222 -38 323 -33 558 8 391 70 695 208 1027 376 903 1176
1551 2134 1728 375 69 815 58 1183 -30 962 -229 1750 -953 2062 -1895 96 -289
130 -497 137 -830 5 -232 -4 -384 -33 -563 l-7 -37 91 0 c50 0 93 4 97 9 32
53 56 579 36 798 -68 721 -376 1379 -886 1888 -510 511 -1173 820 -1895 885
-133 12 -415 11 -544 -1z"/>
<path d="M2574 4964 c-23 -8 -52 -26 -65 -40 l-24 -26 -3 -589 c-2 -550 -4
-589 -20 -589 -75 0 -284 35 -331 56 -122 55 -304 217 -444 396 -73 93 -102
110 -143 84 -52 -35 -39 -130 30 -223 50 -67 193 -207 278 -273 62 -48 61 -60
-3 -60 -46 0 -208 -41 -271 -68 -56 -25 -68 -44 -68 -112 0 -41 5 -56 24 -75
l24 -24 113 40 c201 72 285 89 429 89 118 0 304 -13 358 -25 20 -5 22 -11 22
-71 0 -66 0 -66 -64 -148 -122 -155 -252 -258 -374 -296 -55 -17 -93 -20 -278
-20 -201 0 -215 -1 -234 -20 -28 -28 -28 -102 0 -130 18 -18 33 -20 171 -20
l152 0 -80 -83 c-171 -178 -263 -347 -263 -483 0 -43 45 -94 84 -94 59 0 78
19 116 117 52 138 137 268 244 374 49 50 91 79 167 118 145 74 197 110 283
193 l76 73 0 -235 c0 -268 5 -315 29 -304 9 4 41 9 72 11 64 6 104 -9 230 -83
42 -24 79 -44 82 -44 4 0 7 239 7 531 l0 531 33 -7 c17 -4 107 -25 199 -47
l167 -39 3 -444 c2 -244 6 -446 9 -450 4 -3 49 -17 100 -31 52 -14 132 -38
178 -54 83 -29 91 -30 272 -30 153 0 200 4 264 20 67 17 111 20 297 20 132 0
227 4 239 10 15 9 19 22 19 70 0 76 -7 80 -151 80 l-113 0 60 36 c114 68 204
184 204 261 0 45 -16 53 -101 53 -80 0 -109 -12 -109 -46 0 -24 -89 -106 -154
-143 -32 -18 -122 -53 -200 -78 -132 -43 -341 -136 -377 -169 -8 -8 -17 -14
-20 -14 -4 0 -4 1057 0 1235 l1 71 152 -23 c177 -26 187 -29 296 -101 99 -64
228 -189 335 -324 42 -53 86 -99 97 -103 58 -19 103 53 80 130 -25 83 -174
251 -334 376 -59 46 -59 59 4 59 44 0 178 32 253 60 76 28 92 53 83 127 -8 67
-19 83 -56 83 -21 0 -36 11 -61 43 -70 89 -145 171 -213 229 -45 39 -61 58
-46 53 61 -20 103 -26 218 -32 111 -5 124 -4 143 13 19 17 20 25 14 89 -4 38
-12 76 -17 83 -8 9 -102 12 -408 12 -218 0 -431 3 -473 6 l-77 7 0 188 0 187
-30 26 c-39 32 -89 46 -170 46 -84 0 -133 -14 -173 -50 l-32 -28 -3 -441 c-2
-325 -6 -441 -14 -441 -6 0 -96 21 -200 47 l-188 48 0 382 c0 275 -3 389 -12
408 -20 45 -81 68 -183 72 -62 2 -103 -2 -131 -13z m1433 -664 c120 -54 261
-168 345 -280 l50 -65 -59 -19 c-43 -14 -97 -20 -216 -24 -153 -4 -384 12
-400 27 -10 10 -22 343 -14 365 10 25 236 23 294 -4z m-1009 -419 c43 -11 128
-30 190 -42 l112 -22 0 -130 0 -129 -27 5 c-16 4 -98 22 -183 42 -85 19 -163
35 -172 35 -16 0 -18 13 -18 130 0 87 4 130 11 130 6 0 45 -9 87 -19z"/>
<path d="M549 2242 c-77 -26 -213 -100 -246 -135 -26 -27 -28 -34 -27 -115 0
-132 57 -262 120 -278 13 -4 71 1 129 11 204 33 343 -11 700 -225 294 -175
459 -237 610 -227 138 8 383 104 603 236 153 91 285 153 397 186 128 38 273
38 400 0 102 -30 250 -99 375 -175 280 -171 504 -250 670 -237 144 11 337 88
540 216 154 97 337 186 435 212 94 25 252 29 332 10 43 -11 55 -10 81 3 60 31
152 221 152 316 0 65 -17 83 -141 144 -245 120 -342 100 -744 -156 -363 -230
-492 -283 -700 -282 -156 0 -231 24 -499 156 -664 329 -723 331 -1336 33 -151
-74 -304 -143 -339 -155 -104 -34 -218 -46 -315 -32 -172 25 -312 88 -663 298
-333 200 -421 233 -534 196z"/>
<path d="M561 1366 c-20 -24 201 -307 374 -481 290 -291 699 -535 895 -535
121 0 228 48 544 245 330 205 478 265 659 265 188 0 325 -56 687 -282 424
-264 520 -282 785 -144 285 149 518 326 721 548 83 91 261 316 284 359 16 30
0 39 -73 39 -98 0 -230 -55 -417 -173 -357 -225 -640 -316 -890 -286 -142 17
-229 48 -510 184 -386 188 -507 221 -686 191 -127 -21 -263 -76 -522 -208
-281 -144 -386 -179 -548 -186 -140 -5 -225 9 -366 64 -112 42 -312 144 -453
230 -143 87 -268 151 -329 169 -63 19 -140 19 -155 1z"/>
<path d="M2950 495 c-119 -32 -422 -204 -527 -300 -55 -48 -67 -81 -39 -104
20 -17 190 -48 359 -66 253 -26 494 -18 767 26 176 28 200 35 200 61 0 33 -82
105 -219 192 -289 183 -411 226 -541 191z"/>
</g>
</svg>
